# Blender 5.0.1
# www.blender.org
mtllib S_2_Baked.mtl
o S_3
v 0.000000 -1.000000 0.000000
v 0.723607 -0.447220 0.525725
v -0.276388 -0.447220 0.850649
v -0.894426 -0.447216 0.000000
v -0.276388 -0.447220 -0.850649
v 0.723607 -0.447220 -0.525725
v 0.276388 0.447220 0.850649
v -0.723607 0.447220 0.525725
v -0.723607 0.447220 -0.525725
v 0.276388 0.447220 -0.850649
v 0.894426 0.447216 0.000000
v 0.000000 1.000000 0.000000
v -0.232822 -0.657519 0.716563
v -0.162456 -0.850654 0.499995
v -0.077607 -0.967950 0.238853
v 0.203181 -0.967950 0.147618
v 0.425323 -0.850654 0.309011
v 0.609547 -0.657519 0.442856
v 0.531941 -0.502302 0.681712
v 0.262869 -0.525738 0.809012
v -0.029639 -0.502302 0.864184
v 0.812729 -0.502301 -0.295238
v 0.850648 -0.525736 0.000000
v 0.812729 -0.502301 0.295238
v 0.203181 -0.967950 -0.147618
v 0.425323 -0.850654 -0.309011
v 0.609547 -0.657519 -0.442856
v -0.753442 -0.657515 0.000000
v -0.525730 -0.850652 0.000000
v -0.251147 -0.967949 0.000000
v -0.483971 -0.502302 0.716565
v -0.688189 -0.525736 0.499997
v -0.831051 -0.502299 0.238853
v -0.232822 -0.657519 -0.716563
v -0.162456 -0.850654 -0.499995
v -0.077607 -0.967950 -0.238853
v -0.831051 -0.502299 -0.238853
v -0.688189 -0.525736 -0.499997
v -0.483971 -0.502302 -0.716565
v -0.029639 -0.502302 -0.864184
v 0.262869 -0.525738 -0.809012
v 0.531941 -0.502302 -0.681712
v 0.956626 0.251149 0.147618
v 0.951058 -0.000000 0.309013
v 0.860698 -0.251151 0.442858
v 0.860698 -0.251151 -0.442858
v 0.951058 0.000000 -0.309013
v 0.956626 0.251149 -0.147618
v 0.155215 0.251152 0.955422
v 0.000000 -0.000000 1.000000
v -0.155215 -0.251152 0.955422
v 0.687159 -0.251152 0.681715
v 0.587786 0.000000 0.809017
v 0.436007 0.251152 0.864188
v -0.860698 0.251151 0.442858
v -0.951058 -0.000000 0.309013
v -0.956626 -0.251149 0.147618
v -0.436007 -0.251152 0.864188
v -0.587786 0.000000 0.809017
v -0.687159 0.251152 0.681715
v -0.687159 0.251152 -0.681715
v -0.587786 -0.000000 -0.809017
v -0.436007 -0.251152 -0.864188
v -0.956626 -0.251149 -0.147618
v -0.951058 0.000000 -0.309013
v -0.860698 0.251151 -0.442858
v 0.436007 0.251152 -0.864188
v 0.587786 -0.000000 -0.809017
v 0.687159 -0.251152 -0.681715
v -0.155215 -0.251152 -0.955422
v 0.000000 0.000000 -1.000000
v 0.155215 0.251152 -0.955422
v 0.831051 0.502299 0.238853
v 0.688189 0.525736 0.499997
v 0.483971 0.502302 0.716565
v 0.029639 0.502302 0.864184
v -0.262869 0.525738 0.809012
v -0.531941 0.502302 0.681712
v -0.812729 0.502301 0.295238
v -0.850648 0.525736 0.000000
v -0.812729 0.502301 -0.295238
v -0.531941 0.502302 -0.681712
v -0.262869 0.525738 -0.809012
v 0.029639 0.502302 -0.864184
v 0.483971 0.502302 -0.716565
v 0.688189 0.525736 -0.499997
v 0.831051 0.502299 -0.238853
v 0.077607 0.967950 0.238853
v 0.162456 0.850654 0.499995
v 0.232822 0.657519 0.716563
v 0.753442 0.657515 0.000000
v 0.525730 0.850652 0.000000
v 0.251147 0.967949 0.000000
v -0.203181 0.967950 0.147618
v -0.425323 0.850654 0.309011
v -0.609547 0.657519 0.442856
v -0.203181 0.967950 -0.147618
v -0.425323 0.850654 -0.309011
v -0.609547 0.657519 -0.442856
v 0.077607 0.967950 -0.238853
v 0.162456 0.850654 -0.499995
v 0.232822 0.657519 -0.716563
v 0.361800 0.894429 -0.262863
v 0.638194 0.723610 -0.262864
v 0.447209 0.723612 -0.525728
v -0.138197 0.894430 -0.425319
v -0.052790 0.723612 -0.688185
v -0.361804 0.723612 -0.587778
v -0.447210 0.894429 0.000000
v -0.670817 0.723611 -0.162457
v -0.670817 0.723611 0.162457
v -0.138197 0.894430 0.425319
v -0.361804 0.723612 0.587778
v -0.052790 0.723612 0.688185
v 0.361800 0.894429 0.262863
v 0.447209 0.723612 0.525728
v 0.638194 0.723610 0.262864
v 0.861804 0.276396 -0.425322
v 0.809019 0.000000 -0.587782
v 0.670821 0.276397 -0.688189
v -0.138199 0.276397 -0.951055
v -0.309016 -0.000000 -0.951057
v -0.447215 0.276397 -0.850649
v -0.947213 0.276396 -0.162458
v -1.000000 0.000001 0.000000
v -0.947213 0.276397 0.162458
v -0.447216 0.276397 0.850648
v -0.309017 -0.000001 0.951056
v -0.138199 0.276397 0.951055
v 0.670820 0.276396 0.688190
v 0.809019 -0.000002 0.587783
v 0.861804 0.276394 0.425323
v 0.309017 -0.000000 -0.951056
v 0.447216 -0.276398 -0.850648
v 0.138199 -0.276398 -0.951055
v -0.809018 -0.000000 -0.587783
v -0.670819 -0.276397 -0.688191
v -0.861803 -0.276396 -0.425324
v -0.809018 0.000000 0.587783
v -0.861803 -0.276396 0.425324
v -0.670819 -0.276397 0.688191
v 0.309017 0.000000 0.951056
v 0.138199 -0.276398 0.951055
v 0.447216 -0.276398 0.850648
v 1.000000 0.000000 0.000000
v 0.947213 -0.276396 0.162458
v 0.947213 -0.276396 -0.162458
v 0.361803 -0.723612 -0.587779
v 0.138197 -0.894429 -0.425321
v 0.052789 -0.723611 -0.688186
v -0.447211 -0.723612 -0.525727
v -0.361801 -0.894429 -0.262863
v -0.638195 -0.723609 -0.262863
v -0.638195 -0.723609 0.262864
v -0.361801 -0.894428 0.262864
v -0.447211 -0.723610 0.525729
v 0.670817 -0.723611 -0.162457
v 0.670818 -0.723610 0.162458
v 0.447211 -0.894428 0.000001
v 0.052790 -0.723612 0.688185
v 0.138199 -0.894429 0.425321
v 0.361805 -0.723611 0.587779
vn -0.0000 -1.0000 -0.0000
vn 0.7236 -0.4472 0.5257
vn -0.2764 -0.4472 0.8506
vn -0.8944 -0.4472 -0.0000
vn -0.2764 -0.4472 -0.8506
vn 0.7236 -0.4472 -0.5257
vn 0.2764 0.4472 0.8506
vn -0.7236 0.4472 0.5257
vn -0.7236 0.4472 -0.5257
vn 0.2764 0.4472 -0.8506
vn 0.8944 0.4472 -0.0000
vn -0.0000 1.0000 -0.0000
vn -0.2308 -0.6650 0.7103
vn -0.1625 -0.8507 0.5000
vn -0.0806 -0.9654 0.2480
vn 0.2110 -0.9654 0.1533
vn 0.4253 -0.8507 0.3090
vn 0.6042 -0.6650 0.4390
vn 0.5237 -0.5038 0.6870
vn 0.2629 -0.5257 0.8090
vn -0.0198 -0.5038 0.8636
vn 0.8152 -0.5038 -0.2857
vn 0.8506 -0.5257 -0.0000
vn 0.8152 -0.5038 0.2857
vn 0.2110 -0.9654 -0.1533
vn 0.4253 -0.8507 -0.3090
vn 0.6042 -0.6650 -0.4390
vn -0.7469 -0.6650 -0.0000
vn -0.5257 -0.8507 -0.0000
vn -0.2608 -0.9654 -0.0000
vn -0.4915 -0.5038 0.7103
vn -0.6882 -0.5257 0.5000
vn -0.8274 -0.5038 0.2480
vn -0.2308 -0.6650 -0.7103
vn -0.1625 -0.8507 -0.5000
vn -0.0806 -0.9654 -0.2480
vn -0.8274 -0.5038 -0.2480
vn -0.6882 -0.5257 -0.5000
vn -0.4915 -0.5038 -0.7103
vn -0.0198 -0.5038 -0.8636
vn 0.2629 -0.5257 -0.8090
vn 0.5237 -0.5038 -0.6870
vn 0.9578 0.2431 0.1533
vn 0.9511 -0.0000 0.3090
vn 0.8650 -0.2431 0.4390
vn 0.8650 -0.2431 -0.4390
vn 0.9511 -0.0000 -0.3090
vn 0.9578 0.2431 -0.1533
vn 0.1502 0.2431 0.9583
vn -0.0000 -0.0000 1.0000
vn -0.1502 -0.2431 0.9583
vn 0.6848 -0.2431 0.6870
vn 0.5878 -0.0000 0.8090
vn 0.4417 0.2431 0.8636
vn -0.8650 0.2431 0.4390
vn -0.9511 -0.0000 0.3090
vn -0.9578 -0.2431 0.1533
vn -0.4417 -0.2431 0.8636
vn -0.5878 -0.0000 0.8090
vn -0.6848 0.2431 0.6870
vn -0.6848 0.2431 -0.6870
vn -0.5878 -0.0000 -0.8090
vn -0.4417 -0.2431 -0.8636
vn -0.9578 -0.2431 -0.1533
vn -0.9511 -0.0000 -0.3090
vn -0.8650 0.2431 -0.4390
vn 0.4417 0.2431 -0.8636
vn 0.5878 -0.0000 -0.8090
vn 0.6848 -0.2431 -0.6870
vn -0.1502 -0.2431 -0.9583
vn -0.0000 -0.0000 -1.0000
vn 0.1502 0.2431 -0.9583
vn 0.8274 0.5038 0.2480
vn 0.6882 0.5257 0.5000
vn 0.4915 0.5038 0.7103
vn 0.0198 0.5038 0.8636
vn -0.2629 0.5257 0.8090
vn -0.5237 0.5038 0.6870
vn -0.8152 0.5038 0.2857
vn -0.8506 0.5257 -0.0000
vn -0.8152 0.5038 -0.2857
vn -0.5237 0.5038 -0.6870
vn -0.2629 0.5257 -0.8090
vn 0.0198 0.5038 -0.8636
vn 0.4915 0.5038 -0.7103
vn 0.6882 0.5257 -0.5000
vn 0.8274 0.5038 -0.2480
vn 0.0806 0.9654 0.2480
vn 0.1625 0.8507 0.5000
vn 0.2308 0.6650 0.7103
vn 0.7469 0.6650 -0.0000
vn 0.5257 0.8507 -0.0000
vn 0.2607 0.9654 -0.0000
vn -0.2110 0.9654 0.1533
vn -0.4253 0.8507 0.3090
vn -0.6042 0.6650 0.4390
vn -0.2110 0.9654 -0.1533
vn -0.4253 0.8507 -0.3090
vn -0.6042 0.6650 -0.4390
vn 0.0806 0.9654 -0.2480
vn 0.1625 0.8507 -0.5000
vn 0.2308 0.6650 -0.7103
vn 0.3682 0.8904 -0.2675
vn 0.6317 0.7275 -0.2675
vn 0.4496 0.7276 -0.5182
vn -0.1406 0.8904 -0.4329
vn -0.0592 0.7276 -0.6835
vn -0.3539 0.7276 -0.5878
vn -0.4551 0.8904 -0.0000
vn -0.6683 0.7276 -0.1549
vn -0.6683 0.7276 0.1549
vn -0.1406 0.8904 0.4329
vn -0.3539 0.7276 0.5878
vn -0.0592 0.7276 0.6835
vn 0.3682 0.8904 0.2675
vn 0.4496 0.7276 0.5182
vn 0.6317 0.7275 0.2675
vn 0.8593 0.2724 -0.4329
vn 0.8090 0.0089 -0.5878
vn 0.6772 0.2724 -0.6835
vn -0.1461 0.2724 -0.9510
vn -0.3090 0.0089 -0.9510
vn -0.4408 0.2724 -0.8553
vn -0.9496 0.2724 -0.1549
vn -1.0000 0.0089 -0.0000
vn -0.9496 0.2724 0.1549
vn -0.4408 0.2724 0.8553
vn -0.3090 0.0089 0.9510
vn -0.1461 0.2724 0.9510
vn 0.6772 0.2724 0.6835
vn 0.8090 0.0089 0.5878
vn 0.8593 0.2724 0.4329
vn 0.3090 -0.0089 -0.9510
vn 0.4408 -0.2724 -0.8553
vn 0.1461 -0.2724 -0.9510
vn -0.8090 -0.0089 -0.5878
vn -0.6772 -0.2724 -0.6835
vn -0.8593 -0.2724 -0.4329
vn -0.8090 -0.0089 0.5878
vn -0.8593 -0.2724 0.4329
vn -0.6772 -0.2724 0.6835
vn 0.3090 -0.0089 0.9510
vn 0.1461 -0.2724 0.9510
vn 0.4408 -0.2724 0.8553
vn 1.0000 -0.0089 -0.0000
vn 0.9496 -0.2724 0.1549
vn 0.9496 -0.2724 -0.1549
vn 0.3539 -0.7276 -0.5878
vn 0.1406 -0.8904 -0.4329
vn 0.0592 -0.7276 -0.6835
vn -0.4496 -0.7276 -0.5182
vn -0.3682 -0.8904 -0.2675
vn -0.6317 -0.7275 -0.2675
vn -0.6317 -0.7275 0.2675
vn -0.3682 -0.8904 0.2675
vn -0.4496 -0.7275 0.5182
vn 0.6683 -0.7275 -0.1549
vn 0.6683 -0.7275 0.1549
vn 0.4551 -0.8904 -0.0000
vn 0.0592 -0.7276 0.6835
vn 0.1406 -0.8904 0.4329
vn 0.3539 -0.7276 0.5878
vt 0.000000 -0.000022
s 1
f 1/1/1 16/1/16 15/1/15
f 2/1/2 18/1/18 24/1/24
f 1/1/1 15/1/15 30/1/30
f 1/1/1 30/1/30 36/1/36
f 1/1/1 36/1/36 25/1/25
f 2/1/2 24/1/24 45/1/45
f 3/1/3 21/1/21 51/1/51
f 4/1/4 33/1/33 57/1/57
f 5/1/5 39/1/39 63/1/63
f 6/1/6 42/1/42 69/1/69
f 2/1/2 45/1/45 52/1/52
f 3/1/3 51/1/51 58/1/58
f 4/1/4 57/1/57 64/1/64
f 5/1/5 63/1/63 70/1/70
f 6/1/6 69/1/69 46/1/46
f 7/1/7 75/1/75 90/1/90
f 8/1/8 78/1/78 96/1/96
f 9/1/9 81/1/81 99/1/99
f 10/1/10 84/1/84 102/1/102
f 11/1/11 87/1/87 91/1/91
f 93/1/93 100/1/100 12/1/12
f 92/1/92 103/1/103 93/1/93
f 91/1/91 104/1/104 92/1/92
f 93/1/93 103/1/103 100/1/100
f 103/1/103 101/1/101 100/1/100
f 92/1/92 104/1/104 103/1/103
f 104/1/104 105/1/105 103/1/103
f 103/1/103 105/1/105 101/1/101
f 105/1/105 102/1/102 101/1/101
f 91/1/91 87/1/87 104/1/104
f 87/1/87 86/1/86 104/1/104
f 104/1/104 86/1/86 105/1/105
f 86/1/86 85/1/85 105/1/105
f 105/1/105 85/1/85 102/1/102
f 85/1/85 10/1/10 102/1/102
f 100/1/100 97/1/97 12/1/12
f 101/1/101 106/1/106 100/1/100
f 102/1/102 107/1/107 101/1/101
f 100/1/100 106/1/106 97/1/97
f 106/1/106 98/1/98 97/1/97
f 101/1/101 107/1/107 106/1/106
f 107/1/107 108/1/108 106/1/106
f 106/1/106 108/1/108 98/1/98
f 108/1/108 99/1/99 98/1/98
f 102/1/102 84/1/84 107/1/107
f 84/1/84 83/1/83 107/1/107
f 107/1/107 83/1/83 108/1/108
f 83/1/83 82/1/82 108/1/108
f 108/1/108 82/1/82 99/1/99
f 82/1/82 9/1/9 99/1/99
f 97/1/97 94/1/94 12/1/12
f 98/1/98 109/1/109 97/1/97
f 99/1/99 110/1/110 98/1/98
f 97/1/97 109/1/109 94/1/94
f 109/1/109 95/1/95 94/1/94
f 98/1/98 110/1/110 109/1/109
f 110/1/110 111/1/111 109/1/109
f 109/1/109 111/1/111 95/1/95
f 111/1/111 96/1/96 95/1/95
f 99/1/99 81/1/81 110/1/110
f 81/1/81 80/1/80 110/1/110
f 110/1/110 80/1/80 111/1/111
f 80/1/80 79/1/79 111/1/111
f 111/1/111 79/1/79 96/1/96
f 79/1/79 8/1/8 96/1/96
f 94/1/94 88/1/88 12/1/12
f 95/1/95 112/1/112 94/1/94
f 96/1/96 113/1/113 95/1/95
f 94/1/94 112/1/112 88/1/88
f 112/1/112 89/1/89 88/1/88
f 95/1/95 113/1/113 112/1/112
f 113/1/113 114/1/114 112/1/112
f 112/1/112 114/1/114 89/1/89
f 114/1/114 90/1/90 89/1/89
f 96/1/96 78/1/78 113/1/113
f 78/1/78 77/1/77 113/1/113
f 113/1/113 77/1/77 114/1/114
f 77/1/77 76/1/76 114/1/114
f 114/1/114 76/1/76 90/1/90
f 76/1/76 7/1/7 90/1/90
f 88/1/88 93/1/93 12/1/12
f 89/1/89 115/1/115 88/1/88
f 90/1/90 116/1/116 89/1/89
f 88/1/88 115/1/115 93/1/93
f 115/1/115 92/1/92 93/1/93
f 89/1/89 116/1/116 115/1/115
f 116/1/116 117/1/117 115/1/115
f 115/1/115 117/1/117 92/1/92
f 117/1/117 91/1/91 92/1/92
f 90/1/90 75/1/75 116/1/116
f 75/1/75 74/1/74 116/1/116
f 116/1/116 74/1/74 117/1/117
f 74/1/74 73/1/73 117/1/117
f 117/1/117 73/1/73 91/1/91
f 73/1/73 11/1/11 91/1/91
f 48/1/48 87/1/87 11/1/11
f 47/1/47 118/1/118 48/1/48
f 46/1/46 119/1/119 47/1/47
f 48/1/48 118/1/118 87/1/87
f 118/1/118 86/1/86 87/1/87
f 47/1/47 119/1/119 118/1/118
f 119/1/119 120/1/120 118/1/118
f 118/1/118 120/1/120 86/1/86
f 120/1/120 85/1/85 86/1/86
f 46/1/46 69/1/69 119/1/119
f 69/1/69 68/1/68 119/1/119
f 119/1/119 68/1/68 120/1/120
f 68/1/68 67/1/67 120/1/120
f 120/1/120 67/1/67 85/1/85
f 67/1/67 10/1/10 85/1/85
f 72/1/72 84/1/84 10/1/10
f 71/1/71 121/1/121 72/1/72
f 70/1/70 122/1/122 71/1/71
f 72/1/72 121/1/121 84/1/84
f 121/1/121 83/1/83 84/1/84
f 71/1/71 122/1/122 121/1/121
f 122/1/122 123/1/123 121/1/121
f 121/1/121 123/1/123 83/1/83
f 123/1/123 82/1/82 83/1/83
f 70/1/70 63/1/63 122/1/122
f 63/1/63 62/1/62 122/1/122
f 122/1/122 62/1/62 123/1/123
f 62/1/62 61/1/61 123/1/123
f 123/1/123 61/1/61 82/1/82
f 61/1/61 9/1/9 82/1/82
f 66/1/66 81/1/81 9/1/9
f 65/1/65 124/1/124 66/1/66
f 64/1/64 125/1/125 65/1/65
f 66/1/66 124/1/124 81/1/81
f 124/1/124 80/1/80 81/1/81
f 65/1/65 125/1/125 124/1/124
f 125/1/125 126/1/126 124/1/124
f 124/1/124 126/1/126 80/1/80
f 126/1/126 79/1/79 80/1/80
f 64/1/64 57/1/57 125/1/125
f 57/1/57 56/1/56 125/1/125
f 125/1/125 56/1/56 126/1/126
f 56/1/56 55/1/55 126/1/126
f 126/1/126 55/1/55 79/1/79
f 55/1/55 8/1/8 79/1/79
f 60/1/60 78/1/78 8/1/8
f 59/1/59 127/1/127 60/1/60
f 58/1/58 128/1/128 59/1/59
f 60/1/60 127/1/127 78/1/78
f 127/1/127 77/1/77 78/1/78
f 59/1/59 128/1/128 127/1/127
f 128/1/128 129/1/129 127/1/127
f 127/1/127 129/1/129 77/1/77
f 129/1/129 76/1/76 77/1/77
f 58/1/58 51/1/51 128/1/128
f 51/1/51 50/1/50 128/1/128
f 128/1/128 50/1/50 129/1/129
f 50/1/50 49/1/49 129/1/129
f 129/1/129 49/1/49 76/1/76
f 49/1/49 7/1/7 76/1/76
f 54/1/54 75/1/75 7/1/7
f 53/1/53 130/1/130 54/1/54
f 52/1/52 131/1/131 53/1/53
f 54/1/54 130/1/130 75/1/75
f 130/1/130 74/1/74 75/1/75
f 53/1/53 131/1/131 130/1/130
f 131/1/131 132/1/132 130/1/130
f 130/1/130 132/1/132 74/1/74
f 132/1/132 73/1/73 74/1/74
f 52/1/52 45/1/45 131/1/131
f 45/1/45 44/1/44 131/1/131
f 131/1/131 44/1/44 132/1/132
f 44/1/44 43/1/43 132/1/132
f 132/1/132 43/1/43 73/1/73
f 43/1/43 11/1/11 73/1/73
f 67/1/67 72/1/72 10/1/10
f 68/1/68 133/1/133 67/1/67
f 69/1/69 134/1/134 68/1/68
f 67/1/67 133/1/133 72/1/72
f 133/1/133 71/1/71 72/1/72
f 68/1/68 134/1/134 133/1/133
f 134/1/134 135/1/135 133/1/133
f 133/1/133 135/1/135 71/1/71
f 135/1/135 70/1/70 71/1/71
f 69/1/69 42/1/42 134/1/134
f 42/1/42 41/1/41 134/1/134
f 134/1/134 41/1/41 135/1/135
f 41/1/41 40/1/40 135/1/135
f 135/1/135 40/1/40 70/1/70
f 40/1/40 5/1/5 70/1/70
f 61/1/61 66/1/66 9/1/9
f 62/1/62 136/1/136 61/1/61
f 63/1/63 137/1/137 62/1/62
f 61/1/61 136/1/136 66/1/66
f 136/1/136 65/1/65 66/1/66
f 62/1/62 137/1/137 136/1/136
f 137/1/137 138/1/138 136/1/136
f 136/1/136 138/1/138 65/1/65
f 138/1/138 64/1/64 65/1/65
f 63/1/63 39/1/39 137/1/137
f 39/1/39 38/1/38 137/1/137
f 137/1/137 38/1/38 138/1/138
f 38/1/38 37/1/37 138/1/138
f 138/1/138 37/1/37 64/1/64
f 37/1/37 4/1/4 64/1/64
f 55/1/55 60/1/60 8/1/8
f 56/1/56 139/1/139 55/1/55
f 57/1/57 140/1/140 56/1/56
f 55/1/55 139/1/139 60/1/60
f 139/1/139 59/1/59 60/1/60
f 56/1/56 140/1/140 139/1/139
f 140/1/140 141/1/141 139/1/139
f 139/1/139 141/1/141 59/1/59
f 141/1/141 58/1/58 59/1/59
f 57/1/57 33/1/33 140/1/140
f 33/1/33 32/1/32 140/1/140
f 140/1/140 32/1/32 141/1/141
f 32/1/32 31/1/31 141/1/141
f 141/1/141 31/1/31 58/1/58
f 31/1/31 3/1/3 58/1/58
f 49/1/49 54/1/54 7/1/7
f 50/1/50 142/1/142 49/1/49
f 51/1/51 143/1/143 50/1/50
f 49/1/49 142/1/142 54/1/54
f 142/1/142 53/1/53 54/1/54
f 50/1/50 143/1/143 142/1/142
f 143/1/143 144/1/144 142/1/142
f 142/1/142 144/1/144 53/1/53
f 144/1/144 52/1/52 53/1/53
f 51/1/51 21/1/21 143/1/143
f 21/1/21 20/1/20 143/1/143
f 143/1/143 20/1/20 144/1/144
f 20/1/20 19/1/19 144/1/144
f 144/1/144 19/1/19 52/1/52
f 19/1/19 2/1/2 52/1/52
f 43/1/43 48/1/48 11/1/11
f 44/1/44 145/1/145 43/1/43
f 45/1/45 146/1/146 44/1/44
f 43/1/43 145/1/145 48/1/48
f 145/1/145 47/1/47 48/1/48
f 44/1/44 146/1/146 145/1/145
f 146/1/146 147/1/147 145/1/145
f 145/1/145 147/1/147 47/1/47
f 147/1/147 46/1/46 47/1/47
f 45/1/45 24/1/24 146/1/146
f 24/1/24 23/1/23 146/1/146
f 146/1/146 23/1/23 147/1/147
f 23/1/23 22/1/22 147/1/147
f 147/1/147 22/1/22 46/1/46
f 22/1/22 6/1/6 46/1/46
f 27/1/27 42/1/42 6/1/6
f 26/1/26 148/1/148 27/1/27
f 25/1/25 149/1/149 26/1/26
f 27/1/27 148/1/148 42/1/42
f 148/1/148 41/1/41 42/1/42
f 26/1/26 149/1/149 148/1/148
f 149/1/149 150/1/150 148/1/148
f 148/1/148 150/1/150 41/1/41
f 150/1/150 40/1/40 41/1/41
f 25/1/25 36/1/36 149/1/149
f 36/1/36 35/1/35 149/1/149
f 149/1/149 35/1/35 150/1/150
f 35/1/35 34/1/34 150/1/150
f 150/1/150 34/1/34 40/1/40
f 34/1/34 5/1/5 40/1/40
f 34/1/34 39/1/39 5/1/5
f 35/1/35 151/1/151 34/1/34
f 36/1/36 152/1/152 35/1/35
f 34/1/34 151/1/151 39/1/39
f 151/1/151 38/1/38 39/1/39
f 35/1/35 152/1/152 151/1/151
f 152/1/152 153/1/153 151/1/151
f 151/1/151 153/1/153 38/1/38
f 153/1/153 37/1/37 38/1/38
f 36/1/36 30/1/30 152/1/152
f 30/1/30 29/1/29 152/1/152
f 152/1/152 29/1/29 153/1/153
f 29/1/29 28/1/28 153/1/153
f 153/1/153 28/1/28 37/1/37
f 28/1/28 4/1/4 37/1/37
f 28/1/28 33/1/33 4/1/4
f 29/1/29 154/1/154 28/1/28
f 30/1/30 155/1/155 29/1/29
f 28/1/28 154/1/154 33/1/33
f 154/1/154 32/1/32 33/1/33
f 29/1/29 155/1/155 154/1/154
f 155/1/155 156/1/156 154/1/154
f 154/1/154 156/1/156 32/1/32
f 156/1/156 31/1/31 32/1/32
f 30/1/30 15/1/15 155/1/155
f 15/1/15 14/1/14 155/1/155
f 155/1/155 14/1/14 156/1/156
f 14/1/14 13/1/13 156/1/156
f 156/1/156 13/1/13 31/1/31
f 13/1/13 3/1/3 31/1/31
f 22/1/22 27/1/27 6/1/6
f 23/1/23 157/1/157 22/1/22
f 24/1/24 158/1/158 23/1/23
f 22/1/22 157/1/157 27/1/27
f 157/1/157 26/1/26 27/1/27
f 23/1/23 158/1/158 157/1/157
f 158/1/158 159/1/159 157/1/157
f 157/1/157 159/1/159 26/1/26
f 159/1/159 25/1/25 26/1/26
f 24/1/24 18/1/18 158/1/158
f 18/1/18 17/1/17 158/1/158
f 158/1/158 17/1/17 159/1/159
f 17/1/17 16/1/16 159/1/159
f 159/1/159 16/1/16 25/1/25
f 16/1/16 1/1/1 25/1/25
f 13/1/13 21/1/21 3/1/3
f 14/1/14 160/1/160 13/1/13
f 15/1/15 161/1/161 14/1/14
f 13/1/13 160/1/160 21/1/21
f 160/1/160 20/1/20 21/1/21
f 14/1/14 161/1/161 160/1/160
f 161/1/161 162/1/162 160/1/160
f 160/1/160 162/1/162 20/1/20
f 162/1/162 19/1/19 20/1/20
f 15/1/15 16/1/16 161/1/161
f 16/1/16 17/1/17 161/1/161
f 161/1/161 17/1/17 162/1/162
f 17/1/17 18/1/18 162/1/162
f 162/1/162 18/1/18 19/1/19
f 18/1/18 2/1/2 19/1/19
